<svg width="131" height="35" viewBox="0 0 131 35" fill="none" xmlns="http://www.w3.org/2000/svg">
<circle cx="17.5" cy="17.5" r="15" stroke="#2875E8" stroke-width="5"/>
<circle cx="32.5" cy="17.5" r="15" stroke="#2875E8" stroke-width="5"/>
<path d="M66.0596 11.2031H68.9248V19.6055C68.9248 20.6016 68.7139 21.4395 68.292 22.1191C67.876 22.7988 67.2959 23.3115 66.5518 23.6572C65.8076 24.0029 64.9463 24.1758 63.9678 24.1758C62.9834 24.1758 62.1162 24.0029 61.3662 23.6572C60.6221 23.3115 60.0361 22.7988 59.6084 22.1191C59.1865 21.4395 58.9756 20.6016 58.9756 19.6055V11.2031H61.8496V19.6055C61.8496 20.1562 61.9316 20.6074 62.0957 20.959C62.2656 21.3047 62.5088 21.5596 62.8252 21.7236C63.1416 21.8818 63.5225 21.9609 63.9678 21.9609C64.4131 21.9609 64.791 21.8818 65.1016 21.7236C65.418 21.5596 65.6553 21.3047 65.8135 20.959C65.9775 20.6074 66.0596 20.1562 66.0596 19.6055V11.2031ZM73.683 16.4854V24H70.9408V14.4902H73.516L73.683 16.4854ZM73.3314 18.9111L72.6371 18.9287C72.6371 18.2607 72.7162 17.6484 72.8744 17.0918C73.0385 16.5293 73.2758 16.04 73.5863 15.624C73.8969 15.208 74.2807 14.8857 74.7377 14.6572C75.2006 14.4287 75.7338 14.3145 76.3373 14.3145C76.7592 14.3145 77.143 14.3789 77.4887 14.5078C77.8344 14.6309 78.1303 14.8271 78.3764 15.0967C78.6283 15.3604 78.8217 15.7061 78.9564 16.1338C79.0912 16.5557 79.1586 17.0625 79.1586 17.6543V24H76.4164V17.9883C76.4164 17.5664 76.3637 17.2471 76.2582 17.0303C76.1586 16.8076 76.0121 16.6553 75.8188 16.5732C75.6254 16.4912 75.3939 16.4502 75.1244 16.4502C74.8314 16.4502 74.5707 16.5146 74.3422 16.6436C74.1195 16.7666 73.932 16.9395 73.7797 17.1621C73.6273 17.3848 73.5131 17.6455 73.4369 17.9443C73.3666 18.2432 73.3314 18.5654 73.3314 18.9111ZM78.8773 18.7705L78.0072 18.8408C78.0072 18.1963 78.0834 17.5986 78.2357 17.0479C78.3881 16.4971 78.6166 16.0195 78.9213 15.6152C79.226 15.2051 79.6039 14.8857 80.0551 14.6572C80.5121 14.4287 81.0424 14.3145 81.6459 14.3145C82.0912 14.3145 82.4955 14.3789 82.8588 14.5078C83.2279 14.6367 83.5443 14.8447 83.808 15.1318C84.0775 15.4189 84.2855 15.7969 84.432 16.2656C84.5785 16.7285 84.6518 17.2969 84.6518 17.9707V24H81.892V17.9707C81.892 17.5547 81.8393 17.2383 81.7338 17.0215C81.6342 16.8047 81.4877 16.6553 81.2943 16.5732C81.1068 16.4912 80.8813 16.4502 80.6176 16.4502C80.3246 16.4502 80.0697 16.5117 79.8529 16.6348C79.6361 16.752 79.4545 16.916 79.308 17.127C79.1615 17.332 79.0531 17.5752 78.9828 17.8564C78.9125 18.1377 78.8773 18.4424 78.8773 18.7705ZM92.1697 21.7061V14.4902H94.9295V24H92.3455L92.1697 21.7061ZM92.4598 19.7637L93.2156 19.7461C93.2156 20.3848 93.1395 20.9736 92.9871 21.5127C92.8406 22.0518 92.618 22.5205 92.3191 22.9189C92.0262 23.3174 91.66 23.6279 91.2205 23.8506C90.7869 24.0674 90.2801 24.1758 89.7 24.1758C89.2313 24.1758 88.8006 24.1113 88.408 23.9824C88.0213 23.8477 87.6873 23.6396 87.4061 23.3584C87.1248 23.0713 86.908 22.7051 86.7557 22.2598C86.6033 21.8086 86.5271 21.2695 86.5271 20.6426V14.4902H89.2693V20.6602C89.2693 20.9062 89.2986 21.1172 89.3572 21.293C89.4217 21.4629 89.5066 21.6035 89.6121 21.7148C89.7234 21.8262 89.8582 21.9082 90.0164 21.9609C90.1805 22.0137 90.3592 22.04 90.5525 22.04C91.0389 22.04 91.4197 21.9404 91.6951 21.7412C91.9764 21.5361 92.1727 21.2637 92.284 20.9238C92.4012 20.5781 92.4598 20.1914 92.4598 19.7637ZM99.5646 16.7051V24H96.8225V14.4902H99.3977L99.5646 16.7051ZM102.404 14.4199L102.36 16.9775C102.242 16.96 102.09 16.9453 101.903 16.9336C101.715 16.916 101.554 16.9072 101.419 16.9072C101.068 16.9072 100.763 16.9512 100.505 17.0391C100.253 17.1211 100.042 17.2441 99.8723 17.4082C99.7082 17.5723 99.5852 17.7773 99.5031 18.0234C99.4211 18.2637 99.3801 18.542 99.3801 18.8584L98.8615 18.6035C98.8615 17.9766 98.923 17.4023 99.0461 16.8809C99.1691 16.3594 99.3479 15.9082 99.5822 15.5273C99.8166 15.1406 100.104 14.8418 100.444 14.6309C100.783 14.4199 101.17 14.3145 101.604 14.3145C101.744 14.3145 101.888 14.3232 102.034 14.3408C102.181 14.3584 102.304 14.3848 102.404 14.4199ZM108.383 21.7324V17.6543C108.383 17.3672 108.339 17.1211 108.252 16.916C108.164 16.7109 108.026 16.5498 107.838 16.4326C107.651 16.3154 107.408 16.2568 107.109 16.2568C106.857 16.2568 106.637 16.3008 106.45 16.3887C106.268 16.4766 106.128 16.6025 106.028 16.7666C105.934 16.9307 105.887 17.1328 105.887 17.373H103.145C103.145 16.9453 103.242 16.5469 103.435 16.1777C103.629 15.8086 103.904 15.4834 104.261 15.2021C104.625 14.9209 105.058 14.7041 105.562 14.5518C106.066 14.3936 106.631 14.3145 107.258 14.3145C108.003 14.3145 108.665 14.4404 109.245 14.6924C109.831 14.9385 110.294 15.3105 110.633 15.8086C110.973 16.3008 111.143 16.9219 111.143 17.6719V21.6533C111.143 22.2275 111.175 22.6787 111.24 23.0068C111.31 23.3291 111.41 23.6104 111.539 23.8506V24H108.77C108.641 23.7246 108.545 23.3848 108.48 22.9805C108.416 22.5703 108.383 22.1543 108.383 21.7324ZM108.726 18.1992L108.744 19.7109H107.381C107.077 19.7109 106.813 19.749 106.59 19.8252C106.374 19.9014 106.198 20.0068 106.063 20.1416C105.928 20.2705 105.829 20.4229 105.764 20.5986C105.706 20.7686 105.676 20.9561 105.676 21.1611C105.676 21.3545 105.723 21.5303 105.817 21.6885C105.911 21.8408 106.04 21.9609 106.204 22.0488C106.368 22.1367 106.558 22.1807 106.775 22.1807C107.132 22.1807 107.437 22.1104 107.689 21.9697C107.947 21.8291 108.146 21.6592 108.287 21.46C108.427 21.2549 108.498 21.0645 108.498 20.8887L109.157 22.0312C109.051 22.2656 108.922 22.5088 108.77 22.7607C108.618 23.0068 108.424 23.2383 108.19 23.4551C107.956 23.666 107.671 23.8389 107.338 23.9736C107.009 24.1084 106.614 24.1758 106.151 24.1758C105.553 24.1758 105.011 24.0557 104.525 23.8154C104.039 23.5693 103.649 23.2324 103.356 22.8047C103.069 22.377 102.925 21.8848 102.925 21.3281C102.925 20.8301 103.016 20.3877 103.198 20.001C103.379 19.6143 103.652 19.2861 104.015 19.0166C104.384 18.7471 104.847 18.5449 105.404 18.4102C105.961 18.2695 106.611 18.1992 107.355 18.1992H108.726ZM116.235 22.0576L118.222 14.4902H121.104L117.949 24H116.218L116.235 22.0576ZM114.952 14.4902L116.93 22.0664L116.947 24H115.216L112.061 14.4902H114.952ZM127.111 21.7324V17.6543C127.111 17.3672 127.067 17.1211 126.979 16.916C126.891 16.7109 126.753 16.5498 126.566 16.4326C126.378 16.3154 126.135 16.2568 125.836 16.2568C125.584 16.2568 125.365 16.3008 125.177 16.3887C124.996 16.4766 124.855 16.6025 124.755 16.7666C124.662 16.9307 124.615 17.1328 124.615 17.373H121.872C121.872 16.9453 121.969 16.5469 122.162 16.1777C122.356 15.8086 122.631 15.4834 122.989 15.2021C123.352 14.9209 123.786 14.7041 124.289 14.5518C124.793 14.3936 125.359 14.3145 125.986 14.3145C126.73 14.3145 127.392 14.4404 127.972 14.6924C128.558 14.9385 129.021 15.3105 129.361 15.8086C129.701 16.3008 129.871 16.9219 129.871 17.6719V21.6533C129.871 22.2275 129.903 22.6787 129.967 23.0068C130.037 23.3291 130.137 23.6104 130.266 23.8506V24H127.497C127.369 23.7246 127.272 23.3848 127.207 22.9805C127.143 22.5703 127.111 22.1543 127.111 21.7324ZM127.454 18.1992L127.471 19.7109H126.109C125.804 19.7109 125.54 19.749 125.318 19.8252C125.101 19.9014 124.925 20.0068 124.79 20.1416C124.656 20.2705 124.556 20.4229 124.492 20.5986C124.433 20.7686 124.404 20.9561 124.404 21.1611C124.404 21.3545 124.451 21.5303 124.544 21.6885C124.638 21.8408 124.767 21.9609 124.931 22.0488C125.095 22.1367 125.286 22.1807 125.502 22.1807C125.86 22.1807 126.164 22.1104 126.416 21.9697C126.674 21.8291 126.873 21.6592 127.014 21.46C127.155 21.2549 127.225 21.0645 127.225 20.8887L127.884 22.0312C127.779 22.2656 127.65 22.5088 127.497 22.7607C127.345 23.0068 127.152 23.2383 126.917 23.4551C126.683 23.666 126.399 23.8389 126.065 23.9736C125.737 24.1084 125.341 24.1758 124.878 24.1758C124.281 24.1758 123.739 24.0557 123.252 23.8154C122.766 23.5693 122.376 23.2324 122.083 22.8047C121.796 22.377 121.653 21.8848 121.653 21.3281C121.653 20.8301 121.744 20.3877 121.925 20.001C122.107 19.6143 122.379 19.2861 122.743 19.0166C123.112 18.7471 123.575 18.5449 124.131 18.4102C124.688 18.2695 125.338 18.1992 126.082 18.1992H127.454Z" fill="black"/>
</svg>
